# Blender v2.93.1 OBJ File: ''
# www.blender.org
mtllib tinker.mtl
o obj_0.002
v 2.250000 3.897000 -7.500000
v 0.453000 1.689000 -7.500000
v 1.165000 4.347003 -7.500000
v 3.182000 3.182000 -7.500000
v 0.874000 1.514000 -7.500000
v 1.236000 1.236000 -7.500000
v -1.165000 4.347003 -7.500000
v 0.000000 4.500000 -7.500000
v 0.000000 1.749000 -7.500000
v 1.514000 0.874000 -7.500000
v 3.897000 2.250000 -7.500000
v 0.874000 1.514000 7.500000
v 2.250000 3.897000 7.500000
v 0.453000 1.689000 7.500000
v 1.689000 0.453000 -7.500000
v 4.347000 1.165000 -7.500000
v 1.236000 1.236000 7.500000
v 3.182000 3.182000 7.500000
v 1.514000 0.874000 7.500000
v 1.689000 0.453000 7.500000
v 3.897000 2.250000 7.500000
v 1.689000 -0.453000 7.500000
v 4.347000 -1.165000 7.500000
v 1.749000 -0.000000 7.500000
v 1.514000 -0.874000 7.500000
v 3.897000 -2.250000 7.500000
v 4.347000 1.165000 7.500000
v 1.236000 -1.236000 7.500000
v 3.182000 -3.182000 7.500000
v -3.897000 2.250000 7.500000
v -1.514000 0.874000 7.500000
v -3.182000 3.182000 7.500000
v -4.347000 -1.165000 7.500000
v -3.897000 -2.250000 7.500000
v -1.689000 -0.453000 7.500000
v -1.749000 -0.000000 7.500000
v -1.689000 0.453000 7.500000
v -4.347000 1.165000 7.500000
v 2.250000 -3.897000 7.500000
v 1.165000 -4.347000 -7.500000
v 2.250000 -3.897000 -7.500000
v -1.514000 -0.874000 7.500000
v 3.182000 -3.182000 -7.500000
v -1.236000 1.236000 7.500000
v -4.500000 -0.000000 7.500000
v -0.874000 1.514000 7.500000
v -3.182000 3.182000 -7.500000
v -3.897000 2.250000 -7.500000
v -1.165000 4.347000 7.500000
v -2.250000 3.897000 7.500000
v -0.453000 1.689000 7.500000
v 0.000000 1.749000 7.500000
v -4.347000 -1.165000 -7.500000
v -2.250000 3.897000 -7.500000
v 0.453000 -1.689000 7.500000
v 0.874000 -1.514000 7.500000
v -3.897000 -2.250000 -7.500000
v -1.236000 -1.236000 7.500000
v -0.874000 -1.514000 7.500000
v -1.236000 -1.236000 -7.500000
v 0.000000 -4.500000 7.500000
v 1.165000 -4.347003 7.500000
v 0.000000 -1.749000 7.500000
v 1.749000 0.000000 -7.500000
v 4.500000 0.000000 -7.500000
v -2.250000 -3.897000 -7.500000
v -2.250000 -3.897000 7.500000
v -3.182000 -3.182000 -7.500000
v -1.165000 -4.347000 -7.500000
v -0.453000 -1.689000 7.500000
v -1.165000 -4.347003 7.500000
v 4.347000 -1.165000 -7.500000
v 1.689000 -0.453000 -7.500000
v 3.897000 -2.250000 -7.500000
v 1.514000 -0.874000 -7.500000
v -1.749000 0.000000 -7.500000
v -0.453000 1.689000 -7.500000
v -0.874000 1.514000 -7.500000
v -1.689000 0.453000 -7.500000
v -3.182000 -3.182000 7.500000
v -1.514000 0.874000 -7.500000
v -1.236000 1.236000 -7.500000
v 1.165000 4.347000 7.500000
v -4.500000 0.000000 -7.500000
v 0.000000 4.500000 7.500000
v 0.874000 -1.514000 -7.500000
v -4.347000 1.165000 -7.500000
v -1.514000 -0.874000 -7.500000
v -1.689000 -0.453000 -7.500000
v 4.500000 -0.000000 7.500000
v -0.453000 -1.689000 -7.500000
v 0.000000 -1.749000 -7.500000
v 0.453000 -1.689000 -7.500000
v 0.000000 -4.500000 -7.500000
v -0.874000 -1.514000 -7.500000
v 1.236000 -1.236000 -7.500000
vn 0.3672 0.6358 -0.6789
vn -0.1754 -0.6519 -0.7378
vn 0.1901 0.7093 -0.6788
vn 0.5192 0.5192 -0.6789
vn -0.3381 -0.5845 -0.7376
vn -0.4775 -0.4775 -0.7376
vn -0.1901 0.7093 -0.6788
vn -0.0000 0.7342 -0.6789
vn -0.0000 -0.6749 -0.7379
vn -0.5845 -0.3381 -0.7376
vn 0.6358 0.3672 -0.6789
vn -0.3381 -0.5845 0.7376
vn 0.3672 0.6358 0.6789
vn -0.1754 -0.6519 0.7378
vn -0.6519 -0.1754 -0.7378
vn 0.7093 0.1901 -0.6788
vn -0.4775 -0.4775 0.7376
vn 0.5192 0.5192 0.6789
vn -0.5845 -0.3381 0.7376
vn -0.6519 -0.1754 0.7378
vn 0.6358 0.3672 0.6789
vn -0.6519 0.1754 0.7378
vn 0.7093 -0.1901 0.6788
vn -0.6749 0.0000 0.7379
vn -0.5845 0.3381 0.7376
vn 0.6358 -0.3672 0.6789
vn 0.7093 0.1901 0.6788
vn -0.4775 0.4775 0.7376
vn 0.5192 -0.5192 0.6789
vn -0.6358 0.3672 0.6789
vn 0.5845 -0.3381 0.7376
vn -0.5192 0.5192 0.6789
vn -0.7093 -0.1901 0.6788
vn -0.6358 -0.3672 0.6789
vn 0.6519 0.1754 0.7378
vn 0.6749 0.0000 0.7379
vn 0.6519 -0.1754 0.7378
vn -0.7093 0.1901 0.6788
vn 0.3672 -0.6358 0.6789
vn 0.1901 -0.7093 -0.6788
vn 0.3672 -0.6358 -0.6789
vn 0.5845 0.3381 0.7376
vn 0.5192 -0.5192 -0.6789
vn 0.4775 -0.4775 0.7376
vn -0.7342 0.0000 0.6789
vn 0.3381 -0.5845 0.7376
vn -0.5192 0.5192 -0.6789
vn -0.6358 0.3672 -0.6789
vn -0.1901 0.7093 0.6788
vn -0.3672 0.6358 0.6789
vn 0.1754 -0.6519 0.7378
vn 0.0000 -0.6749 0.7379
vn -0.7093 -0.1901 -0.6788
vn -0.3672 0.6358 -0.6789
vn -0.1754 0.6519 0.7378
vn -0.3381 0.5845 0.7376
vn -0.6358 -0.3672 -0.6789
vn 0.4775 0.4775 0.7376
vn 0.3381 0.5845 0.7376
vn 0.4775 0.4775 -0.7376
vn 0.0000 -0.7342 0.6789
vn 0.1901 -0.7093 0.6788
vn 0.0000 0.6749 0.7379
vn -0.6749 0.0000 -0.7379
vn 0.7342 0.0000 -0.6789
vn -0.3672 -0.6358 -0.6789
vn -0.3672 -0.6358 0.6789
vn -0.5192 -0.5192 -0.6789
vn -0.1901 -0.7093 -0.6788
vn 0.1754 0.6519 0.7378
vn -0.1901 -0.7093 0.6788
vn 0.7093 -0.1901 -0.6788
vn -0.6519 0.1754 -0.7378
vn 0.6358 -0.3672 -0.6789
vn -0.5845 0.3381 -0.7376
vn 0.6749 0.0000 -0.7379
vn 0.1754 -0.6519 -0.7378
vn 0.3381 -0.5845 -0.7376
vn 0.6519 -0.1754 -0.7378
vn -0.5192 -0.5192 0.6789
vn 0.5845 -0.3381 -0.7376
vn 0.4775 -0.4775 -0.7376
vn 0.1901 0.7093 0.6788
vn -0.7342 -0.0000 -0.6789
vn 0.0000 0.7342 0.6789
vn -0.3381 0.5845 -0.7376
vn -0.7093 0.1901 -0.6788
vn 0.5845 0.3381 -0.7376
vn 0.6519 0.1754 -0.7378
vn 0.7342 0.0000 0.6789
vn 0.1754 0.6519 -0.7378
vn 0.0000 0.6749 -0.7379
vn -0.1754 0.6519 -0.7378
vn 0.0000 -0.7342 -0.6789
vn 0.3381 0.5845 -0.7376
vn -0.4775 0.4775 -0.7376
usemtl color_16089887.002
s 1
f 1//1 2//2 3//3
f 4//4 5//5 1//1
f 6//6 5//5 4//4
f 7//7 8//8 9//9
f 2//2 1//1 5//5
f 10//10 6//6 4//4
f 4//4 11//11 10//10
f 12//12 13//13 14//14
f 15//15 10//10 11//11
f 11//11 16//16 15//15
f 17//17 18//18 12//12
f 19//19 18//18 17//17
f 20//20 21//21 19//19
f 22//22 23//23 24//24
f 25//25 26//26 22//22
f 24//24 27//27 20//20
f 28//28 29//29 25//25
f 30//30 31//31 32//32
f 33//33 34//34 35//35
f 36//36 33//33 35//35
f 37//37 38//38 36//36
f 39//39 40//40 41//41
f 31//31 30//30 37//37
f 42//42 35//35 34//34
f 41//41 43//43 39//39
f 44//44 32//32 31//31
f 33//33 36//36 45//45
f 46//46 32//32 44//44
f 47//47 48//48 32//32
f 45//45 36//36 38//38
f 49//49 50//50 51//51
f 38//38 37//37 30//30
f 52//52 49//49 51//51
f 46//46 51//51 50//50
f 32//32 46//46 50//50
f 34//34 33//33 53//53
f 7//7 54//54 50//50
f 7//7 50//50 49//49
f 32//32 50//50 47//47
f 54//54 47//47 50//50
f 55//55 39//39 56//56
f 53//53 57//57 34//34
f 58//58 59//59 60//60
f 23//23 22//22 26//26
f 26//26 25//25 29//29
f 28//28 56//56 29//29
f 61//61 62//62 63//63
f 55//55 63//63 62//62
f 39//39 55//55 62//62
f 29//29 56//56 39//39
f 64//64 15//15 16//16
f 16//16 65//65 64//64
f 58//58 60//60 42//42
f 66//66 67//67 68//68
f 67//67 66//66 69//69
f 59//59 67//67 70//70
f 70//70 71//71 63//63
f 65//65 72//72 64//64
f 73//73 64//64 72//72
f 72//72 74//74 73//73
f 75//75 73//73 74//74
f 74//74 43//43 75//75
f 35//35 76//76 36//36
f 9//9 77//77 7//7
f 8//8 3//3 9//9
f 2//2 9//9 3//3
f 77//77 78//78 54//54
f 79//79 37//37 76//76
f 36//36 76//76 37//37
f 61//61 63//63 71//71
f 58//58 80//80 59//59
f 42//42 80//80 58//58
f 71//71 70//70 67//67
f 80//80 42//42 34//34
f 67//67 59//59 80//80
f 37//37 79//79 81//81
f 37//37 81//81 31//31
f 44//44 31//31 82//82
f 81//81 82//82 31//31
f 13//13 3//3 83//83
f 84//84 53//53 33//33
f 3//3 85//85 83//83
f 86//86 56//56 28//28
f 87//87 84//84 45//45
f 7//7 49//49 85//85
f 78//78 46//46 82//82
f 44//44 82//82 46//46
f 33//33 45//45 84//84
f 46//46 78//78 51//51
f 77//77 51//51 78//78
f 60//60 88//88 42//42
f 35//35 42//42 89//89
f 88//88 89//89 42//42
f 87//87 45//45 38//38
f 35//35 89//89 76//76
f 19//19 15//15 20//20
f 20//20 15//15 64//64
f 20//20 64//64 24//24
f 9//9 52//52 77//77
f 51//51 77//77 52//52
f 30//30 32//32 48//48
f 24//24 64//64 22//22
f 65//65 16//16 90//90
f 38//38 30//30 87//87
f 48//48 87//87 30//30
f 91//91 63//63 92//92
f 60//60 68//68 88//88
f 89//89 88//88 57//57
f 56//56 86//86 93//93
f 56//56 93//93 55//55
f 57//57 53//53 89//89
f 92//92 63//63 93//93
f 55//55 93//93 63//63
f 9//9 2//2 52//52
f 40//40 62//62 61//61
f 40//40 61//61 94//94
f 79//79 76//76 87//87
f 84//84 87//87 76//76
f 53//53 84//84 76//76
f 76//76 89//89 53//53
f 39//39 62//62 40//40
f 81//81 79//79 48//48
f 87//87 48//48 79//79
f 43//43 29//29 39//39
f 82//82 81//81 47//47
f 48//48 47//47 81//81
f 17//17 10//10 19//19
f 29//29 43//43 26//26
f 74//74 26//26 43//43
f 19//19 10//10 15//15
f 74//74 72//72 26//26
f 54//54 7//7 77//77
f 47//47 54//54 78//78
f 78//78 82//82 47//47
f 22//22 75//75 25//25
f 70//70 63//63 91//91
f 95//95 59//59 91//91
f 70//70 91//91 59//59
f 25//25 75//75 28//28
f 96//96 86//86 28//28
f 60//60 59//59 95//95
f 13//13 18//18 1//1
f 93//93 40//40 92//92
f 86//86 41//41 93//93
f 96//96 75//75 43//43
f 86//86 96//96 43//43
f 43//43 41//41 86//86
f 41//41 40//40 93//93
f 13//13 1//1 3//3
f 3//3 8//8 85//85
f 80//80 34//34 68//68
f 57//57 68//68 34//34
f 94//94 69//69 92//92
f 40//40 94//94 92//92
f 67//67 80//80 68//68
f 69//69 71//71 67//67
f 14//14 52//52 2//2
f 2//2 5//5 14//14
f 12//12 14//14 5//5
f 69//69 94//94 71//71
f 71//71 94//94 61//61
f 6//6 17//17 5//5
f 12//12 5//5 17//17
f 57//57 88//88 68//68
f 60//60 95//95 68//68
f 66//66 68//68 95//95
f 95//95 91//91 66//66
f 69//69 66//66 91//91
f 91//91 92//92 69//69
f 17//17 6//6 10//10
f 4//4 1//1 18//18
f 64//64 73//73 22//22
f 13//13 83//83 14//14
f 13//13 12//12 18//18
f 18//18 19//19 21//21
f 52//52 14//14 83//83
f 85//85 52//52 83//83
f 22//22 73//73 75//75
f 11//11 21//21 16//16
f 21//21 11//11 18//18
f 11//11 4//4 18//18
f 21//21 20//20 27//27
f 90//90 27//27 24//24
f 90//90 24//24 23//23
f 75//75 96//96 28//28
f 8//8 7//7 85//85
f 27//27 90//90 16//16
f 21//21 27//27 16//16
f 52//52 85//85 49//49
f 72//72 23//23 26//26
f 23//23 72//72 90//90
f 65//65 90//90 72//72
