# Blender v2.93.1 OBJ File: ''
# www.blender.org
mtllib tinker.mtl
o obj_0.030
v -0.750000 -6.646000 6.612520
v -0.750000 6.646000 -6.659479
v -0.750000 -6.645999 -6.659480
v 0.750000 7.473000 7.019521
v 0.750000 7.342999 7.255521
v 0.750000 7.500000 6.833521
v 0.750000 7.206999 7.373521
v 0.750000 7.127999 7.416521
v 0.750000 6.856999 7.476521
v 0.750000 -7.043001 7.449520
v 0.750000 -7.500000 6.833520
v 0.750000 -6.857000 7.476520
v 0.750000 -7.279000 7.319520
v 0.750000 -7.397000 7.183520
v 0.750000 -7.440001 7.104520
v 0.750000 -7.500000 -6.880480
v 0.750000 7.440001 -7.151479
v 0.750000 7.397000 -7.230479
v 0.750000 7.500000 -6.880479
v 0.750000 7.279000 -7.366479
v 0.750000 7.043001 -7.496479
v 0.750000 6.857000 -7.523479
v 0.750000 -6.856999 -7.523480
v -0.662000 -6.915000 6.812520
v -0.721000 -6.835000 -6.868480
v -0.726000 -6.789999 -6.859480
v -0.700000 -6.822999 -6.907480
v 0.750000 -7.482999 -7.021480
v 0.750000 -7.418000 -7.191480
v 0.750000 -7.342999 -7.302480
v 0.750000 -7.206999 -7.420480
v 0.750000 -7.043000 -7.496480
v -0.693000 -6.864999 -6.911480
v -0.713000 -6.856999 -6.877480
v -0.662000 6.883999 6.882521
v -0.696000 -6.883999 -6.888480
v -0.710000 -6.870999 -6.837480
v -0.738000 -6.793000 -6.780480
v -0.695000 -6.889999 -6.849480
v -0.662000 -6.901999 -6.914480
v -0.662000 6.910999 6.850521
v -0.662000 -6.910999 -6.897480
v -0.662000 6.835999 6.891521
v -0.662000 -6.914999 -6.859480
v -0.662000 6.914999 6.812521
v -0.679000 6.893000 6.860521
v -0.682000 6.866000 6.875521
v -0.693000 6.864999 6.864521
v -0.696000 6.883999 6.841521
v -0.713000 6.856999 6.830521
v -0.682000 -6.866000 -6.922480
v -0.662000 -6.883999 -6.929480
v -0.662000 -6.835999 -6.938480
v -0.662000 -6.874001 6.887520
v -0.682000 -6.890000 6.860520
v -0.662000 -6.906001 6.860520
v -0.693000 -6.888000 6.841520
v -0.682000 -6.899001 6.842520
v -0.700000 6.822999 6.860521
v -0.721000 6.835000 6.821521
v -0.695000 -6.826001 6.866520
v -0.662000 6.915000 -6.859479
v -0.662000 6.906001 -6.907479
v -0.682000 6.899001 -6.889479
v -0.713000 -6.854001 6.833520
v -0.662000 6.870000 -6.935479
v -0.662000 6.836000 -6.938479
v -0.700000 6.884000 -6.846479
v -0.693000 6.888000 -6.888479
v -0.713000 6.854001 -6.880479
v -0.721000 6.844000 -6.858479
v -0.726000 6.836000 -6.813479
v -0.679000 6.884000 -6.916479
v -0.695000 6.889999 6.802521
v -0.747000 6.722000 6.675521
v -0.738000 6.793000 6.733521
v -0.710000 6.814001 -6.894479
v -0.738000 6.757000 -6.816479
v -0.696000 6.865000 -6.907479
v -0.695000 6.826001 -6.913479
v -0.710000 6.870999 6.790521
v -0.734000 6.804999 6.779521
v -0.741000 6.776000 -6.767479
v -0.741000 -6.743999 -6.799480
v -0.750000 6.669001 -6.679479
v -0.726000 6.789999 6.812521
v -0.741000 -6.776000 6.720520
v -0.739000 6.787000 6.752521
v -0.741000 6.743999 6.752521
v -0.750000 6.656000 6.645521
v -0.662000 -6.836000 6.891520
v -0.721000 -6.844000 6.811520
v -0.710000 -6.814001 6.847520
v -0.734000 -6.803000 6.781520
v -0.749000 -6.674000 6.667520
v -0.700000 -6.884000 6.799520
v -0.726000 -6.836000 6.766520
v -0.747000 -6.721001 6.675520
v -0.738000 -6.757000 6.769520
v -0.741000 -6.771000 6.754520
vn -0.9998 -0.0008 0.0162
vn -0.9994 -0.0061 -0.0337
vn -0.9992 -0.0322 -0.0230
vn 0.5153 0.8128 0.2716
vn 0.5158 0.6653 0.5397
vn 0.5388 0.8403 0.0599
vn 0.5300 0.4829 0.6970
vn 0.5236 0.3005 0.7972
vn 0.5309 0.0903 0.8426
vn 0.5153 -0.2716 0.8128
vn 0.5309 -0.8426 0.0903
vn 0.5388 -0.0599 0.8403
vn 0.5158 -0.5397 0.6653
vn 0.5300 -0.6970 0.4829
vn 0.5236 -0.7972 0.3005
vn 0.5413 -0.8393 -0.0500
vn 0.5236 0.7972 -0.3005
vn 0.5300 0.6970 -0.4829
vn 0.5309 0.8426 -0.0903
vn 0.5157 0.5396 -0.6655
vn 0.5153 0.2719 -0.8127
vn 0.5388 0.0598 -0.8403
vn 0.5386 -0.0602 -0.8404
vn -0.4919 -0.8686 0.0598
vn -0.9482 -0.1662 -0.2706
vn -0.9465 -0.0357 -0.3208
vn -0.7772 -0.0266 -0.6286
vn 0.5275 -0.8248 -0.2034
vn 0.5294 -0.7523 -0.3921
vn 0.5251 -0.6369 -0.5644
vn 0.5231 -0.4631 -0.7154
vn 0.5221 -0.2430 -0.8175
vn -0.7655 -0.2784 -0.5801
vn -0.9082 -0.3141 -0.2765
vn -0.4585 0.4434 0.7702
vn -0.7631 -0.5851 -0.2745
vn -0.8756 -0.4812 -0.0413
vn -0.9796 -0.1957 -0.0462
vn -0.7188 -0.6929 -0.0557
vn -0.5192 -0.6626 -0.5398
vn -0.4873 0.8142 0.3156
vn -0.5130 -0.8209 -0.2507
vn -0.4919 0.0598 0.8686
vn -0.5031 -0.8627 -0.0507
vn -0.5031 0.8627 0.0507
vn -0.6133 0.6237 0.4846
vn -0.6180 0.2185 0.7552
vn -0.7767 0.2496 0.5783
vn -0.7774 0.5784 0.2471
vn -0.9082 0.3141 0.2765
vn -0.6220 -0.2450 -0.7437
vn -0.4911 -0.3949 -0.7764
vn -0.4928 -0.0590 -0.8681
vn -0.5168 -0.3201 0.7940
vn -0.6898 -0.4819 0.5403
vn -0.4508 -0.7720 0.4480
vn -0.8060 -0.5196 0.2835
vn -0.6115 -0.7693 0.1851
vn -0.7772 0.0266 0.6286
vn -0.9424 0.1744 0.2852
vn -0.7230 -0.0934 0.6844
vn -0.4919 0.8686 -0.0598
vn -0.4559 0.7643 -0.4560
vn -0.6180 0.7552 -0.2185
vn -0.8816 -0.2972 0.3665
vn -0.4877 0.2888 -0.8238
vn -0.5047 0.0446 -0.8621
vn -0.7786 0.6269 -0.0269
vn -0.7767 0.5783 -0.2496
vn -0.9098 0.2763 -0.3096
vn -0.9503 0.2622 -0.1677
vn -0.9463 0.3209 -0.0380
vn -0.5973 0.4867 -0.6374
vn -0.7188 0.6929 0.0556
vn -0.9973 0.0658 0.0321
vn -0.9762 0.2166 0.0048
vn -0.8757 0.0414 -0.4811
vn -0.9794 0.0461 -0.1965
vn -0.7779 0.2473 -0.5776
vn -0.7188 0.0557 -0.6929
vn -0.8735 0.4850 0.0413
vn -0.9797 0.1579 0.1235
vn -0.9894 0.1374 -0.0459
vn -0.9902 -0.0441 -0.1326
vn -0.9948 -0.0448 -0.0915
vn -0.9358 0.0130 0.3523
vn -0.9851 -0.1713 0.0101
vn -0.9919 0.1062 0.0702
vn -0.9891 0.0295 0.1442
vn -0.9992 0.0152 0.0356
vn -0.5000 -0.0481 0.8646
vn -0.9444 -0.2775 0.1763
vn -0.8736 -0.0414 0.4848
vn -0.9769 -0.1257 0.1726
vn -0.9987 -0.0165 0.0487
vn -0.7786 -0.6269 0.0269
vn -0.9349 -0.3546 0.0157
vn -0.9977 -0.0600 0.0327
vn -0.9716 0.0087 0.2364
vn -0.9922 -0.0707 0.1023
usemtl color_16563251
s 1
f 1//1 2//2 3//3
f 4//4 5//5 6//6
f 5//5 7//7 6//6
f 7//7 8//8 6//6
f 8//8 9//9 6//6
f 10//10 11//11 12//12
f 10//10 13//13 14//14
f 15//15 10//10 14//14
f 11//11 10//10 15//15
f 16//16 12//12 11//11
f 6//6 9//9 12//12
f 17//17 12//12 18//18
f 19//19 12//12 17//17
f 18//18 12//12 20//20
f 20//20 12//12 21//21
f 22//22 21//21 12//12
f 19//19 6//6 12//12
f 12//12 16//16 23//23
f 22//22 12//12 23//23
f 16//16 11//11 24//24
f 25//25 26//26 27//27
f 16//16 28//28 23//23
f 28//28 29//29 23//23
f 29//29 30//30 23//23
f 30//30 31//31 23//23
f 32//32 23//23 31//31
f 33//33 34//34 27//27
f 35//35 9//9 8//8
f 33//33 36//36 34//34
f 27//27 34//34 25//25
f 25//25 37//37 38//38
f 25//25 34//34 37//37
f 39//39 37//37 34//34
f 39//39 34//34 36//36
f 36//36 33//33 40//40
f 41//41 5//5 4//4
f 35//35 5//5 41//41
f 40//40 42//42 36//36
f 9//9 35//35 43//43
f 35//35 7//7 5//5
f 36//36 42//42 44//44
f 6//6 45//45 41//41
f 41//41 4//4 6//6
f 36//36 44//44 39//39
f 46//46 47//47 35//35
f 35//35 41//41 46//46
f 46//46 48//48 47//47
f 49//49 50//50 48//48
f 35//35 8//8 7//7
f 27//27 51//51 33//33
f 51//51 52//52 40//40
f 52//52 51//51 53//53
f 54//54 55//55 56//56
f 47//47 43//43 35//35
f 51//51 40//40 33//33
f 55//55 57//57 58//58
f 29//29 42//42 40//40
f 47//47 59//59 43//43
f 40//40 30//30 29//29
f 47//47 48//48 59//59
f 58//58 56//56 55//55
f 53//53 51//51 27//27
f 53//53 32//32 52//52
f 29//29 28//28 42//42
f 40//40 31//31 30//30
f 48//48 50//50 59//59
f 52//52 31//31 40//40
f 32//32 31//31 52//52
f 60//60 59//59 50//50
f 23//23 32//32 53//53
f 61//61 57//57 55//55
f 62//62 63//63 64//64
f 61//61 55//55 54//54
f 61//61 65//65 57//57
f 66//66 22//22 67//67
f 68//68 69//69 70//70
f 70//70 71//71 68//68
f 21//21 22//22 66//66
f 68//68 71//71 72//72
f 68//68 64//64 69//69
f 64//64 63//63 73//73
f 23//23 53//53 22//22
f 41//41 49//49 46//46
f 49//49 48//48 46//46
f 49//49 74//74 50//50
f 2//2 75//75 76//76
f 12//12 9//9 43//43
f 71//71 77//77 78//78
f 70//70 79//79 80//80
f 77//77 70//70 80//80
f 71//71 70//70 77//77
f 62//62 64//64 68//68
f 69//69 73//73 79//79
f 79//79 73//73 66//66
f 70//70 69//69 79//79
f 74//74 81//81 50//50
f 69//69 64//64 73//73
f 80//80 79//79 67//67
f 67//67 79//79 66//66
f 76//76 82//82 81//81
f 45//45 74//74 49//49
f 63//63 17//17 18//18
f 19//19 17//17 63//63
f 45//45 49//49 41//41
f 78//78 83//83 72//72
f 81//81 82//82 60//60
f 78//78 72//72 71//71
f 3//3 2//2 84//84
f 50//50 81//81 60//60
f 78//78 85//85 83//83
f 2//2 78//78 84//84
f 60//60 86//86 59//59
f 16//16 24//24 44//44
f 82//82 86//86 60//60
f 42//42 16//16 44//44
f 42//42 28//28 16//16
f 78//78 77//77 84//84
f 27//27 26//26 80//80
f 80//80 26//26 77//77
f 2//2 76//76 85//85
f 87//87 38//38 37//37
f 88//88 89//89 86//86
f 26//26 84//84 77//77
f 38//38 3//3 84//84
f 26//26 25//25 38//38
f 75//75 90//90 89//89
f 38//38 84//84 26//26
f 2//2 85//85 78//78
f 1//1 3//3 38//38
f 67//67 27//27 80//80
f 86//86 82//82 88//88
f 67//67 53//53 27//27
f 67//67 22//22 53//53
f 76//76 88//88 82//82
f 63//63 20//20 66//66
f 89//89 88//88 76//76
f 76//76 75//75 89//89
f 20//20 63//63 18//18
f 20//20 21//21 66//66
f 54//54 91//91 61//61
f 63//63 66//66 73//73
f 62//62 19//19 63//63
f 81//81 83//83 76//76
f 85//85 76//76 83//83
f 92//92 65//65 93//93
f 61//61 93//93 65//65
f 91//91 43//43 59//59
f 94//94 92//92 93//93
f 1//1 95//95 2//2
f 96//96 57//57 65//65
f 96//96 58//58 57//57
f 54//54 13//13 10//10
f 54//54 10//10 12//12
f 43//43 91//91 12//12
f 13//13 56//56 14//14
f 56//56 13//13 54//54
f 54//54 12//12 91//91
f 24//24 58//58 96//96
f 96//96 65//65 92//92
f 92//92 94//94 97//97
f 61//61 86//86 93//93
f 61//61 91//91 59//59
f 61//61 59//59 86//86
f 6//6 62//62 45//45
f 6//6 19//19 62//62
f 75//75 2//2 90//90
f 72//72 83//83 81//81
f 45//45 62//62 68//68
f 45//45 68//68 74//74
f 56//56 15//15 14//14
f 95//95 98//98 99//99
f 11//11 56//56 24//24
f 1//1 98//98 95//95
f 95//95 90//90 2//2
f 15//15 56//56 11//11
f 99//99 98//98 100//100
f 68//68 72//72 74//74
f 74//74 72//72 81//81
f 90//90 95//95 99//99
f 100//100 98//98 87//87
f 99//99 89//89 90//90
f 86//86 89//89 93//93
f 99//99 100//100 94//94
f 93//93 99//99 94//94
f 93//93 89//89 99//99
f 97//97 96//96 92//92
f 100//100 87//87 97//97
f 97//97 87//87 37//37
f 37//37 39//39 97//97
f 100//100 97//97 94//94
f 1//1 38//38 98//98
f 96//96 39//39 44//44
f 44//44 24//24 96//96
f 98//98 38//38 87//87
f 97//97 39//39 96//96
f 24//24 56//56 58//58
