# Blender v2.93.1 OBJ File: ''
# www.blender.org
mtllib tinker.mtl
o obj_0.037
v -0.200000 7.499999 7.511313
v -0.200000 7.500000 -7.488687
v -0.200000 -7.500000 -7.488688
v -0.200000 -7.500001 7.511312
v 0.200000 -7.500001 7.511312
v 0.200000 -7.500000 -7.488688
v 0.200000 7.500000 -7.488687
v 0.200000 7.499999 7.511313
vn -0.5773 0.5773 0.5773
vn -0.5773 0.5773 -0.5773
vn -0.5773 -0.5773 -0.5773
vn -0.5773 -0.5773 0.5773
vn 0.5773 -0.5773 0.5773
vn 0.5773 -0.5773 -0.5773
vn 0.5773 0.5773 -0.5773
vn 0.5773 0.5773 0.5773
usemtl color_9806362.001
s 1
f 1//1 2//2 3//3
f 1//1 3//3 4//4
f 5//5 6//6 7//7
f 5//5 7//7 8//8
f 6//6 3//3 2//2
f 6//6 2//2 7//7
f 8//8 7//7 2//2
f 8//8 2//2 1//1
f 8//8 1//1 4//4
f 8//8 4//4 5//5
f 4//4 3//3 6//6
f 4//4 6//6 5//5
