# Blender v2.93.1 OBJ File: ''
# www.blender.org
mtllib tinker.mtl
o obj_0.020
v -0.475000 3.885000 5.719786
v -0.479000 3.875000 5.716786
v -0.467000 3.866000 5.744786
v -0.462000 3.903000 -5.713214
v -0.463000 3.868000 -5.734214
v -0.475000 3.884000 -5.706214
v -0.500000 3.766000 -5.522214
v -0.500000 -3.766000 5.537786
v -0.500000 3.766000 5.537786
v 0.500000 3.991000 6.234786
v 0.500000 3.886000 6.257786
v 0.500000 4.084000 6.171786
v 0.500000 4.160999 6.073786
v 0.500000 -4.250000 5.721786
v 0.500000 4.204000 5.980786
v 0.500000 4.250000 5.721786
v 0.500000 4.239999 5.838786
v -0.484000 3.848000 5.704786
v 0.500000 -3.991000 6.234786
v 0.500000 -4.125000 6.126786
v 0.500000 -3.886000 6.257786
v 0.500000 -4.191000 6.013786
v 0.500000 -4.216001 5.947786
v 0.500000 4.250000 -5.706214
v 0.500000 4.216001 -5.932214
v 0.500000 4.191000 -5.998214
v 0.500000 4.125000 -6.111214
v 0.500000 3.991000 -6.219214
v -0.467000 -3.866000 -5.729214
v -0.479000 -3.875000 -5.701214
v -0.484000 -3.848000 -5.689214
v -0.462000 -3.890000 -5.732214
v -0.475000 -3.885000 -5.704214
v 0.500000 -4.250000 -5.706214
v 0.500000 3.886000 -6.242214
v 0.500000 -3.886000 -6.242214
v 0.500000 -4.235000 -5.861214
v 0.500000 -4.039000 -6.192214
v 0.500000 -4.084000 -6.156214
v 0.500000 -4.160999 -6.058214
v -0.464000 -3.901000 -5.713214
v -0.464000 3.901000 5.728786
v -0.441000 3.911000 5.749786
v -0.441000 3.916000 5.735786
v -0.473000 -3.893000 -5.670214
v -0.463000 -3.905000 -5.680214
v -0.463000 3.905000 5.695786
v -0.441000 -3.916000 -5.720214
v -0.453000 -3.906000 -5.728214
v -0.491000 3.851000 5.665786
v -0.473000 3.893000 5.685786
v -0.441000 3.874000 5.770786
v -0.441000 3.901000 5.762786
v -0.441000 -3.919000 -5.688214
v -0.473000 3.861000 -5.718214
v -0.482000 3.875000 -5.685214
v -0.494000 3.822000 5.654786
v -0.467000 3.901000 -5.678214
v -0.455000 3.910000 -5.714214
v -0.441000 3.919000 -5.688214
v -0.455000 -3.891000 -5.742214
v -0.441000 -3.874000 -5.755214
v -0.498000 3.796000 5.608786
v -0.492000 3.849000 5.638786
v -0.441000 -3.901000 -5.747214
v -0.441000 3.874000 -5.755214
v -0.441000 3.895000 -5.751214
v -0.496000 3.814000 -5.625214
v -0.493000 3.840000 -5.648214
v -0.492000 3.829000 -5.653214
v -0.494000 3.840000 -5.612214
v -0.498000 3.808000 -5.574214
v -0.441000 3.919000 5.703786
v -0.462000 3.890000 5.747786
v -0.455000 3.891000 5.757786
v -0.499000 3.782000 -5.567214
v -0.462000 -3.903000 5.728786
v -0.464000 -3.890000 5.743786
v -0.475000 -3.884000 5.721786
v -0.500000 -3.771000 -5.549214
v -0.467000 -3.901000 5.693786
v -0.453000 -3.901000 5.751786
v -0.441000 -3.893000 5.767786
v -0.463000 -3.868000 5.749786
v -0.441000 -3.874000 5.770786
v -0.473000 -3.861000 5.733786
v -0.482000 -3.875000 5.700786
v -0.491000 -3.847000 5.670786
v -0.484000 3.874000 -5.650214
v -0.496000 -3.827000 -5.615214
v -0.494000 -3.822000 -5.639214
v -0.492000 -3.849000 -5.623214
v -0.498000 -3.809000 -5.575214
v -0.492000 -3.829000 5.668786
v -0.441000 3.914000 -5.729214
v -0.455000 -3.910000 5.729786
v -0.441000 -3.914000 5.744786
v -0.484000 -3.874000 5.665786
v -0.455000 3.904000 -5.729214
v -0.494000 -3.840000 5.627786
v -0.489000 -3.856000 -5.661214
v -0.441000 -3.919000 5.703786
v -0.498000 -3.808000 5.589786
vn -0.9009 0.3761 0.2164
vn -0.9453 0.2047 0.2540
vn -0.8379 0.0398 0.5443
vn -0.8038 0.5425 -0.2441
vn -0.7924 0.1194 -0.5982
vn -0.8951 0.3333 -0.2961
vn -0.9997 -0.0104 -0.0217
vn -0.9996 -0.0162 0.0229
vn -0.9990 0.0433 0.0076
vn 0.4850 0.3366 0.8071
vn 0.4959 0.0913 0.8636
vn 0.5075 0.5792 0.6379
vn 0.5311 0.7180 0.4498
vn 0.5604 -0.8259 0.0612
vn 0.5478 0.7865 0.2852
vn 0.5676 0.8226 0.0352
vn 0.5567 0.8189 0.1399
vn -0.9604 0.0332 0.2764
vn 0.4785 -0.3679 0.7973
vn 0.5083 -0.6445 0.5711
vn 0.4959 -0.0913 0.8636
vn 0.5448 -0.7544 0.3659
vn 0.5482 -0.8075 0.2178
vn 0.5604 0.8259 -0.0612
vn 0.5482 0.8075 -0.2178
vn 0.5448 0.7544 -0.3659
vn 0.5084 0.6446 -0.5710
vn 0.4785 0.3678 -0.7973
vn -0.8378 -0.0398 -0.5445
vn -0.9443 -0.2057 -0.2569
vn -0.9592 -0.0280 -0.2812
vn -0.8305 -0.3135 -0.4603
vn -0.9009 -0.3761 -0.2164
vn 0.5663 -0.8232 -0.0398
vn 0.4959 0.0913 -0.8636
vn 0.4864 -0.1325 -0.8636
vn 0.5434 -0.8168 -0.1939
vn 0.4909 -0.4069 -0.7703
vn 0.5181 -0.6008 -0.6087
vn 0.5251 -0.7356 -0.4280
vn -0.7485 -0.6336 -0.1956
vn -0.7366 0.6396 0.2197
vn -0.4984 0.7611 0.4150
vn -0.4593 0.8672 0.1924
vn -0.8538 -0.5199 -0.0283
vn -0.6784 -0.7334 -0.0431
vn -0.6784 0.7334 0.0431
vn -0.4355 -0.8687 -0.2359
vn -0.5929 -0.7126 -0.3750
vn -0.9746 0.2087 0.0812
vn -0.8553 0.5173 0.0286
vn -0.5602 0.0910 0.8233
vn -0.5036 0.5159 0.6929
vn -0.4430 -0.8953 -0.0460
vn -0.9096 0.0556 -0.4116
vn -0.9487 0.2752 -0.1558
vn -0.9928 0.0401 0.1123
vn -0.7368 0.6757 -0.0237
vn -0.5771 0.8026 -0.1503
vn -0.4365 0.8990 -0.0347
vn -0.6848 -0.2931 -0.6671
vn -0.5581 -0.0930 -0.8245
vn -0.9979 0.0583 0.0269
vn -0.9693 0.2455 0.0101
vn -0.4756 -0.5581 -0.6800
vn -0.5806 0.0804 -0.8102
vn -0.5636 0.4044 -0.7202
vn -0.9964 0.0352 -0.0772
vn -0.9856 0.1149 -0.1237
vn -0.9756 0.0011 -0.2194
vn -0.9821 0.1880 -0.0137
vn -0.9971 0.0743 -0.0146
vn -0.4430 0.8953 0.0460
vn -0.8110 0.3574 0.4631
vn -0.6898 0.3267 0.6460
vn -0.9995 0.0133 -0.0268
vn -0.7735 -0.6000 0.2043
vn -0.8251 -0.2897 0.4850
vn -0.9139 -0.3179 0.2522
vn -0.9995 -0.0189 -0.0265
vn -0.7368 -0.6756 0.0237
vn -0.6337 -0.5398 0.5540
vn -0.5495 -0.3731 0.7475
vn -0.7870 -0.0739 0.6125
vn -0.5851 -0.0717 0.8077
vn -0.9097 -0.0556 0.4115
vn -0.9486 -0.2750 0.1563
vn -0.9833 -0.1246 0.1328
vn -0.9183 0.3953 -0.0205
vn -0.9957 -0.0833 -0.0405
vn -0.9916 -0.0370 -0.1234
vn -0.9648 -0.2619 -0.0240
vn -0.9967 -0.0769 -0.0237
vn -0.9857 -0.0170 0.1673
vn -0.4267 0.8284 -0.3627
vn -0.5832 -0.7941 0.1712
vn -0.4285 -0.8267 0.3645
vn -0.9177 -0.3968 0.0195
vn -0.7158 0.5247 -0.4608
vn -0.9855 -0.1674 0.0280
vn -0.9720 -0.2158 -0.0933
vn -0.4365 -0.8990 0.0347
vn -0.9986 -0.0272 0.0452
usemtl color_9703303
s 1
f 1//1 2//2 3//3
f 4//4 5//5 6//6
f 7//7 8//8 9//9
f 10//10 11//11 12//12
f 13//13 12//12 11//11
f 11//11 14//14 13//13
f 15//15 13//13 14//14
f 16//16 17//17 14//14
f 17//17 15//15 14//14
f 2//2 18//18 3//3
f 19//19 20//20 21//21
f 20//20 22//22 21//21
f 11//11 21//21 22//22
f 23//23 11//11 22//22
f 14//14 11//11 23//23
f 24//24 14//14 25//25
f 26//26 14//14 27//27
f 27//27 14//14 28//28
f 25//25 14//14 26//26
f 29//29 30//30 31//31
f 29//29 32//32 33//33
f 24//24 16//16 14//14
f 14//14 34//34 35//35
f 35//35 28//28 14//14
f 36//36 35//35 37//37
f 34//34 37//37 35//35
f 29//29 33//33 30//30
f 38//38 36//36 37//37
f 39//39 38//38 37//37
f 40//40 39//39 37//37
f 32//32 41//41 33//33
f 42//42 43//43 44//44
f 33//33 45//45 30//30
f 33//33 41//41 46//46
f 1//1 42//42 47//47
f 33//33 46//46 45//45
f 48//48 41//41 49//49
f 49//49 41//41 32//32
f 2//2 50//50 18//18
f 2//2 1//1 51//51
f 51//51 50//50 2//2
f 10//10 52//52 11//11
f 52//52 10//10 53//53
f 53//53 10//10 12//12
f 47//47 51//51 1//1
f 41//41 48//48 54//54
f 46//46 41//41 54//54
f 6//6 55//55 56//56
f 50//50 57//57 18//18
f 5//5 55//55 6//6
f 15//15 43//43 13//13
f 58//58 59//59 4//4
f 58//58 60//60 59//59
f 61//61 29//29 62//62
f 61//61 32//32 29//29
f 9//9 63//63 64//64
f 65//65 40//40 48//48
f 57//57 50//50 64//64
f 65//65 61//61 62//62
f 63//63 57//57 64//64
f 61//61 65//65 49//49
f 51//51 64//64 50//50
f 49//49 32//32 61//61
f 48//48 49//49 65//65
f 66//66 5//5 67//67
f 68//68 69//69 70//70
f 71//71 69//69 68//68
f 68//68 72//72 71//71
f 16//16 73//73 44//44
f 44//44 17//17 16//16
f 47//47 42//42 73//73
f 73//73 42//42 44//44
f 17//17 44//44 15//15
f 43//43 15//15 44//44
f 13//13 53//53 12//12
f 53//53 13//13 43//43
f 3//3 74//74 1//1
f 3//3 75//75 74//74
f 75//75 43//43 74//74
f 53//53 43//43 75//75
f 75//75 52//52 53//53
f 75//75 3//3 52//52
f 42//42 74//74 43//43
f 1//1 74//74 42//42
f 76//76 7//7 72//72
f 68//68 76//76 72//72
f 77//77 78//78 79//79
f 60//60 58//58 73//73
f 68//68 80//80 76//76
f 68//68 70//70 80//80
f 54//54 81//81 46//46
f 82//82 83//83 78//78
f 79//79 78//78 84//84
f 8//8 76//76 80//80
f 85//85 84//84 78//78
f 85//85 78//78 83//83
f 84//84 86//86 79//79
f 87//87 86//86 88//88
f 77//77 82//82 78//78
f 55//55 62//62 29//29
f 29//29 31//31 55//55
f 28//28 67//67 27//27
f 62//62 55//55 5//5
f 58//58 47//47 73//73
f 66//66 28//28 35//35
f 72//72 64//64 71//71
f 7//7 9//9 64//64
f 72//72 7//7 64//64
f 65//65 39//39 40//40
f 89//89 71//71 47//47
f 51//51 71//71 64//64
f 66//66 35//35 36//36
f 51//51 47//47 71//71
f 90//90 91//91 92//92
f 90//90 93//93 91//91
f 8//8 7//7 76//76
f 28//28 66//66 67//67
f 90//90 92//92 93//93
f 80//80 91//91 93//93
f 57//57 63//63 94//94
f 95//95 24//24 25//25
f 36//36 62//62 66//66
f 73//73 16//16 24//24
f 24//24 95//95 60//60
f 80//80 70//70 91//91
f 62//62 5//5 66//66
f 91//91 70//70 55//55
f 73//73 24//24 60//60
f 58//58 56//56 89//89
f 69//69 89//89 56//56
f 55//55 31//31 91//91
f 70//70 56//56 55//55
f 70//70 69//69 56//56
f 84//84 3//3 18//18
f 82//82 77//77 96//96
f 65//65 38//38 39//39
f 71//71 89//89 69//69
f 79//79 86//86 87//87
f 65//65 62//62 38//38
f 36//36 38//38 62//62
f 3//3 85//85 52//52
f 82//82 97//97 83//83
f 58//58 89//89 47//47
f 60//60 95//95 59//59
f 82//82 96//96 97//97
f 48//48 34//34 54//54
f 34//34 48//48 37//37
f 48//48 40//40 37//37
f 88//88 98//98 87//87
f 95//95 99//99 59//59
f 86//86 94//94 88//88
f 95//95 67//67 99//99
f 100//100 45//45 46//46
f 92//92 101//101 45//45
f 27//27 67//67 95//95
f 95//95 25//25 26//26
f 101//101 30//30 45//45
f 79//79 81//81 77//77
f 26//26 27//27 95//95
f 98//98 81//81 87//87
f 79//79 87//87 81//81
f 91//91 101//101 92//92
f 58//58 4//4 6//6
f 91//91 31//31 101//101
f 31//31 30//30 101//101
f 56//56 58//58 6//6
f 83//83 20//20 19//19
f 96//96 81//81 102//102
f 4//4 99//99 5//5
f 97//97 20//20 83//83
f 67//67 5//5 99//99
f 96//96 77//77 81//81
f 4//4 59//59 99//99
f 11//11 52//52 85//85
f 85//85 3//3 84//84
f 86//86 18//18 57//57
f 97//97 96//96 102//102
f 18//18 86//86 84//84
f 94//94 86//86 57//57
f 102//102 14//14 97//97
f 14//14 23//23 97//97
f 102//102 54//54 14//14
f 92//92 100//100 93//93
f 19//19 21//21 85//85
f 93//93 100//100 103//103
f 11//11 85//85 21//21
f 54//54 102//102 81//81
f 83//83 19//19 85//85
f 34//34 14//14 54//54
f 98//98 46//46 81//81
f 22//22 97//97 23//23
f 22//22 20//20 97//97
f 8//8 80//80 93//93
f 8//8 93//93 103//103
f 100//100 88//88 94//94
f 100//100 98//98 88//88
f 103//103 100//100 94//94
f 94//94 8//8 103//103
f 8//8 94//94 63//63
f 63//63 9//9 8//8
f 45//45 100//100 92//92
f 98//98 100//100 46//46
