# Blender v2.93.1 OBJ File: ''
# www.blender.org
mtllib tinker.mtl
o obj_0.032
v -0.625000 -7.500001 7.222261
v 0.625000 -7.500001 7.222261
v 0.625000 7.499999 7.222262
v -0.625000 7.499999 7.222262
v 0.625000 7.500000 -7.277738
v -0.625000 7.500000 -7.277738
v 0.625000 -7.500000 -7.277739
v -0.625000 -7.500000 -7.277739
vn -0.5773 -0.5773 0.5773
vn 0.5773 -0.5773 0.5773
vn 0.5773 0.5773 0.5773
vn -0.5773 0.5773 0.5773
vn 0.5773 0.5773 -0.5773
vn -0.5773 0.5773 -0.5773
vn 0.5773 -0.5773 -0.5773
vn -0.5773 -0.5773 -0.5773
usemtl color_9334596
s 1
f 1//1 2//2 3//3
f 1//1 3//3 4//4
f 5//5 6//6 4//4
f 5//5 4//4 3//3
f 7//7 8//8 6//6
f 7//7 6//6 5//5
f 1//1 4//4 6//6
f 1//1 6//6 8//8
f 3//3 2//2 7//7
f 3//3 7//7 5//5
f 2//2 1//1 8//8
f 2//2 8//8 7//7
