# Blender v2.92.0 OBJ File: ''
# www.blender.org
mtllib tinker.mtl
o obj_0.028
v 1.000000 -1.250000 5.250000
v -1.000000 -1.250000 5.250000
v -1.000000 -1.250000 -5.250000
v 1.000000 -1.250000 -5.250000
v 1.000000 1.250000 -5.250000
v -1.000000 1.250000 -5.250000
v -1.000000 1.250000 5.250000
v 1.000000 1.250000 5.250000
vn 0.5773 -0.5773 0.5773
vn -0.5773 -0.5773 0.5773
vn -0.5773 -0.5773 -0.5773
vn 0.5773 -0.5773 -0.5773
vn 0.5773 0.5773 -0.5773
vn -0.5773 0.5773 -0.5773
vn -0.5773 0.5773 0.5773
vn 0.5773 0.5773 0.5773
usemtl color_9772161.001
s 1
f 1//1 2//2 3//3
f 1//1 3//3 4//4
f 5//5 6//6 7//7
f 5//5 7//7 8//8
f 8//8 1//1 4//4
f 8//8 4//4 5//5
f 6//6 3//3 2//2
f 6//6 2//2 7//7
f 4//4 3//3 6//6
f 4//4 6//6 5//5
f 8//8 7//7 2//2
f 8//8 2//2 1//1
